<svg id="Layer_1" data-name="Layer 1" xmlns="http://www.w3.org/2000/svg" viewBox="0 0 64 64"><defs><style>.cls-1{fill:#7fe1f7;}.cls-2{fill:#2c3842;}</style></defs><circle class="cls-1" cx="47.3" cy="27.75" r="13.5"/><path class="cls-2" d="M55.88,55.75H21.62a4.12,4.12,0,0,1-4.12-4.11V30.87a4.13,4.13,0,0,1,4.12-4.12H55.88A4.13,4.13,0,0,1,60,30.87V51.64A4.12,4.12,0,0,1,55.88,55.75Zm-34.26-27a2.12,2.12,0,0,0-2.12,2.12V51.64a2.12,2.12,0,0,0,2.12,2.11H55.88A2.12,2.12,0,0,0,58,51.64V30.87a2.12,2.12,0,0,0-2.12-2.12Z"/><path class="cls-2" d="M18.5,37.25H8.12A4.13,4.13,0,0,1,4,33.13V12.36A4.12,4.12,0,0,1,8.12,8.25H42.38a4.12,4.12,0,0,1,4.12,4.11V27.75a1,1,0,0,1-2,0V12.36a2.12,2.12,0,0,0-2.12-2.11H8.12A2.12,2.12,0,0,0,6,12.36V33.13a2.12,2.12,0,0,0,2.12,2.12H18.5a1,1,0,0,1,0,2Z"/><path class="cls-2" d="M45.5,22.47H5a1,1,0,0,1-1-1v-7a1,1,0,0,1,1-1H45.5a1,1,0,0,1,1,1v7A1,1,0,0,1,45.5,22.47ZM6,20.47H44.5v-5H6Z"/><path class="cls-2" d="M30.63,48.86H24.11a1,1,0,0,1,0-2h6.52a1,1,0,0,1,0,2Z"/><path class="cls-2" d="M30.63,35.9H24.11a1,1,0,0,1,0-2h6.52a1,1,0,1,1,0,2Z"/><path class="cls-2" d="M39,41.52H24.11a1,1,0,1,1,0-2H39a1,1,0,0,1,0,2Z"/><path class="cls-2" d="M42.3,48.86H35.78a1,1,0,0,1,0-2H42.3a1,1,0,0,1,0,2Z"/><path class="cls-2" d="M54,48.86H47.45a1,1,0,0,1,0-2H54a1,1,0,0,1,0,2Z"/><path class="cls-2" d="M52.52,41.83H47.91a2.48,2.48,0,0,1-2.47-2.47V36.67a2.47,2.47,0,0,1,2.47-2.46h4.61A2.46,2.46,0,0,1,55,36.67v2.69A2.47,2.47,0,0,1,52.52,41.83Zm-4.61-5.62a.47.47,0,0,0-.47.46v2.69a.47.47,0,0,0,.47.47h4.61a.46.46,0,0,0,.46-.47V36.67a.46.46,0,0,0-.46-.46Z"/></svg>