<svg id="Layer_1" data-name="Layer 1" xmlns="http://www.w3.org/2000/svg" viewBox="0 0 64 64"><defs><style>.cls-1{fill:#7fe1f7;}.cls-2{fill:#2c3842;}</style></defs><circle class="cls-1" cx="27.45" cy="36.14" r="13.5"/><path class="cls-2" d="M21.78,18.76a1,1,0,0,1-.3-.05A67.58,67.58,0,0,0,8.27,16.16a1,1,0,0,1-.9-1l0-.14a3.17,3.17,0,0,1-.18-1.37,1,1,0,0,1,.89-1c6.34-.68,11.27-.58,15.51.31a1,1,0,1,1-.41,1.95,43.94,43.94,0,0,0-12.42-.5A66.19,66.19,0,0,1,22.07,16.8a1,1,0,0,1-.29,2Z"/><path class="cls-2" d="M42.11,29.83a1,1,0,0,1-.63-.22,66.29,66.29,0,0,0-11-7.21,1,1,0,1,1,.92-1.77,66,66,0,0,1,10.09,6.48,44.81,44.81,0,0,0-9.6-8.63A1,1,0,0,1,33,16.79c3.66,2.31,7.27,5.66,11.35,10.54a1,1,0,0,1-.26,1.51l-1.48.85A1,1,0,0,1,42.11,29.83Z"/><path class="cls-2" d="M14.7,51.46a3.53,3.53,0,0,1-3.26-4.86L22.06,20.81a1,1,0,0,1,1.31-.54L28,22.19a1,1,0,0,1,.55,1.3L18,49.28A3.54,3.54,0,0,1,14.7,51.46Zm8.83-29L13.29,47.36a1.51,1.51,0,0,0,0,1.16,1.52,1.52,0,0,0,2,.82,1.55,1.55,0,0,0,.83-.82L26.34,23.66Z"/><path class="cls-2" d="M29.78,25a1,1,0,0,1-.38-.07l-8.92-3.68a1,1,0,0,1-.54-.54.92.92,0,0,1,0-.76l3-7.39a2.57,2.57,0,0,1,3.34-1.39l6,2.49A2.52,2.52,0,0,1,33.74,15a2.61,2.61,0,0,1,0,2l-.35.83h0l-2.7,6.54A1,1,0,0,1,29.78,25Zm-7.61-5.22,7.07,2.92,2.66-6.46a.64.64,0,0,0,0-.43.57.57,0,0,0-.31-.3l-6-2.49a.55.55,0,0,0-.72.3Zm10.31-2.33h0Z"/><path class="cls-2" d="M31.49,14.79a1,1,0,0,1-.38-.08l-4.66-1.92a1,1,0,0,1-.54-1.3l1.34-3.26a1,1,0,0,1,.54-.54,1,1,0,0,1,.76,0l4.66,1.92a1,1,0,0,1,.55,1.31l-1.34,3.25a1,1,0,0,1-.54.54A1.09,1.09,0,0,1,31.49,14.79Zm-3.35-3.46L31,12.48l.58-1.4L28.71,9.92Z"/><path class="cls-2" d="M44.06,57.21A11.35,11.35,0,1,1,55.4,45.86,11.35,11.35,0,0,1,44.06,57.21Zm0-20.69a9.35,9.35,0,1,0,9.34,9.34A9.35,9.35,0,0,0,44.06,36.52Z"/><path class="cls-2" d="M45,46.65H42.08a.78.78,0,0,1-.78-.79V42a.78.78,0,0,1,.78-.78H45a2.74,2.74,0,0,1,0,5.47Zm-2.15-1.57H45a1.17,1.17,0,1,0,0-2.34H42.86Z"/><path class="cls-2" d="M46,50.55h-3.9a.78.78,0,0,1-.78-.78V45.86a.78.78,0,0,1,.78-.78H46a2.74,2.74,0,1,1,0,5.47ZM42.86,49H46a1.17,1.17,0,0,0,0-2.34H42.86Z"/><path class="cls-2" d="M44,42.74a.78.78,0,0,1-.78-.78V41a.78.78,0,1,1,1.56,0v1A.78.78,0,0,1,44,42.74Z"/><path class="cls-2" d="M44,51.53a.78.78,0,0,1-.78-.79v-1a.78.78,0,0,1,1.56,0v1A.78.78,0,0,1,44,51.53Z"/><path class="cls-2" d="M42.08,42.74h-1a.78.78,0,0,1,0-1.56h1a.78.78,0,0,1,0,1.56Z"/><path class="cls-2" d="M42.08,50.55h-1a.78.78,0,1,1,0-1.56h1a.78.78,0,1,1,0,1.56Z"/><path class="cls-2" d="M48.76,30.19a1,1,0,0,1-.37-1.93l4.47-1.82a1,1,0,0,1,.76,1.86l-4.48,1.81A1,1,0,0,1,48.76,30.19Z"/><path class="cls-2" d="M47,22a1.14,1.14,0,0,1-.4-.08A1,1,0,0,1,46,20.63l2.1-4.88a1,1,0,0,1,1.84.8l-2.1,4.87A1,1,0,0,1,47,22Z"/><path class="cls-2" d="M37.2,33.06H32a1,1,0,0,1,0-2h5.2a1,1,0,0,1,0,2Z"/></svg>