<svg id="Layer_1" data-name="Layer 1" xmlns="http://www.w3.org/2000/svg" viewBox="0 0 64 64"><defs><style>.cls-1{fill:#7fe1f7;}.cls-2{fill:#2c3842;}</style></defs><circle class="cls-1" cx="43.42" cy="16.25" r="13.5"/><path class="cls-2" d="M45.32,17.55H18.68a1,1,0,0,1,0-2H45.32a1,1,0,0,1,0,2Z"/><path class="cls-2" d="M45.32,47H18.68a1,1,0,0,1,0-2H45.32a1,1,0,0,1,0,2Z"/><path class="cls-2" d="M41.92,53.89H22.08a4.41,4.41,0,0,1-4.4-4.4v-35a4.41,4.41,0,0,1,4.4-4.4H41.92a4.41,4.41,0,0,1,4.4,4.4v35A4.41,4.41,0,0,1,41.92,53.89ZM22.08,12.11a2.41,2.41,0,0,0-2.4,2.4v35a2.41,2.41,0,0,0,2.4,2.4H41.92a2.41,2.41,0,0,0,2.4-2.4v-35a2.41,2.41,0,0,0-2.4-2.4Z"/><path class="cls-2" d="M32,42.6A11.34,11.34,0,1,1,43.34,31.26,11.36,11.36,0,0,1,32,42.6Zm0-20.68a9.34,9.34,0,1,0,9.34,9.34A9.35,9.35,0,0,0,32,21.92Z"/><path class="cls-2" d="M33,32H30a.78.78,0,0,1-.78-.78v-3.9a.78.78,0,0,1,.78-.79H33A2.74,2.74,0,0,1,33,32ZM30.8,30.48H33a1.17,1.17,0,0,0,0-2.34H30.8Z"/><path class="cls-2" d="M33.92,36H30a.78.78,0,0,1-.78-.79v-3.9a.78.78,0,0,1,.78-.78h3.9a2.74,2.74,0,1,1,0,5.47ZM30.8,34.38h3.12a1.17,1.17,0,0,0,0-2.34H30.8Z"/><path class="cls-2" d="M32,28.14a.78.78,0,0,1-.78-.78v-1a.79.79,0,0,1,1.57,0v1A.78.78,0,0,1,32,28.14Z"/><path class="cls-2" d="M32,36.92a.78.78,0,0,1-.78-.78v-1a.79.79,0,0,1,1.57,0v1A.78.78,0,0,1,32,36.92Z"/><path class="cls-2" d="M30,28.14h-1a.79.79,0,1,1,0-1.57h1a.79.79,0,0,1,0,1.57Z"/><path class="cls-2" d="M30,36h-1a.79.79,0,1,1,0-1.57h1A.79.79,0,0,1,30,36Z"/><path class="cls-2" d="M32.89,50.28H31.11a1,1,0,0,1,0-2h1.78a1,1,0,0,1,0,2Z"/></svg>