<svg id="Layer_1" data-name="Layer 1" xmlns="http://www.w3.org/2000/svg" viewBox="0 0 64 64"><defs><style>.cls-1{fill:#7fe1f7;}.cls-2{fill:#2c3842;}</style></defs><circle class="cls-1" cx="21" cy="23" r="13.5"/><path class="cls-2" d="M42.61,43.16a1,1,0,0,1,0-2h3.91a7.29,7.29,0,0,0,.86-14.53,1,1,0,0,1-.87-.93A14.53,14.53,0,0,0,18.22,22a1,1,0,0,1-.73.66,9.36,9.36,0,0,0,2.08,18.49h1.28a1,1,0,0,1,0,2H19.57a11.37,11.37,0,0,1-3.07-22.3,16.54,16.54,0,0,1,31.94,3.92,9.32,9.32,0,0,1,7.33,9,9.3,9.3,0,0,1-9.25,9.34Z"/><path class="cls-2" d="M42.34,54.11H21.66a1,1,0,0,1-1-1V32.42a1,1,0,0,1,1-1H42.34a1,1,0,0,1,1,1V53.11A1,1,0,0,1,42.34,54.11Zm-19.68-2H41.34V33.42H22.66Z"/><path class="cls-2" d="M32,48.94a1,1,0,0,1-1-1V44.83a1,1,0,0,1,2,0v3.11A1,1,0,0,1,32,48.94Z"/><path class="cls-2" d="M38.21,33.42a1,1,0,0,1-1-1v-3.1a5.21,5.21,0,0,0-10.42,0v3.1a1,1,0,0,1-2,0v-3.1a7.21,7.21,0,0,1,14.42,0v3.1A1,1,0,0,1,38.21,33.42Z"/><path class="cls-2" d="M32,45.21a3.34,3.34,0,1,1,3.34-3.34A3.35,3.35,0,0,1,32,45.21Zm0-4.68a1.34,1.34,0,1,0,1.34,1.34A1.34,1.34,0,0,0,32,40.53Z"/></svg>