<svg id="Layer_1" data-name="Layer 1" xmlns="http://www.w3.org/2000/svg" viewBox="0 0 64 64"><defs><style>.cls-1{fill:#7fe1f7;}.cls-2{fill:#2c3842;}</style></defs><circle class="cls-1" cx="44.2" cy="21.12" r="13.5"/><path class="cls-2" d="M45.89,39.26H44A2.47,2.47,0,0,1,41.5,36.8V32.92A2.48,2.48,0,0,1,44,30.45h1.8a1,1,0,0,1,0,2H44a.47.47,0,0,0-.47.47V36.8a.47.47,0,0,0,.47.46h1.92a1,1,0,0,1,0,2Z"/><path class="cls-2" d="M47.22,50h-15a1,1,0,0,1,0-2h14V23H13.83a2.11,2.11,0,0,0-2.11,2.12V33.2a1,1,0,0,1-2,0V25.07A4.12,4.12,0,0,1,13.83,21H47.22a1,1,0,0,1,1,1V49A1,1,0,0,1,47.22,50Z"/><path class="cls-2" d="M10.72,32.84a1,1,0,0,1-1-1V20.07A4.12,4.12,0,0,1,13.83,16H44.22a1,1,0,0,1,1,1v5a1,1,0,1,1-2,0V18H13.83a2.11,2.11,0,0,0-2.11,2.12V31.84A1,1,0,0,1,10.72,32.84Z"/><path class="cls-2" d="M20.5,56.38a14.2,14.2,0,1,1,14.2-14.2A14.22,14.22,0,0,1,20.5,56.38ZM20.5,30A12.2,12.2,0,1,0,32.7,42.18,12.21,12.21,0,0,0,20.5,30Z"/><path class="cls-2" d="M21.71,43.18H18a1,1,0,0,1-1-1v-5a1,1,0,0,1,1-1h3.73a3.49,3.49,0,0,1,0,7Zm-2.73-2h2.73a1.49,1.49,0,1,0,0-3H19Z"/><path class="cls-2" d="M23,48.17H18a1,1,0,0,1-1-1v-5a1,1,0,0,1,1-1h5a3.5,3.5,0,0,1,0,7Zm-4-2h4a1.5,1.5,0,0,0,0-3H19Z"/><path class="cls-2" d="M20.47,38.2a1,1,0,0,1-1-1V36a1,1,0,0,1,2,0V37.2A1,1,0,0,1,20.47,38.2Z"/><path class="cls-2" d="M20.47,49.41a1,1,0,0,1-1-1V47.17a1,1,0,0,1,2,0v1.24A1,1,0,0,1,20.47,49.41Z"/><path class="cls-2" d="M18,38.2H16.73a1,1,0,0,1,0-2H18a1,1,0,1,1,0,2Z"/><path class="cls-2" d="M18,48.17H16.73a1,1,0,0,1,0-2H18a1,1,0,1,1,0,2Z"/></svg>