<?xml version="1.0" encoding="UTF-8"?>
<svg width="128pt" height="128pt" version="1.1" viewBox="0 0 128 128" xmlns="http://www.w3.org/2000/svg">
 <g fill="#fff">
  <path d="m123.73 78.93-8.2031-9.0938-9.0938 8.2031c-1.0234 0.92578-1.1094 2.5039-0.18359 3.5312 0.92578 1.0273 2.5039 1.1094 3.5312 0.18359l2.9297-2.6406c-3.3438 23.176-24.523 39.793-48 37.297-1.3711-0.14844-2.6016 0.84766-2.75 2.2188-0.14453 1.375 0.85156 2.6055 2.2227 2.75 1.7461 0.1875 3.4805 0.27734 5.1992 0.27734 24.059 0 44.879-17.797 48.297-41.961l2.3359 2.5859c0.49219 0.54688 1.1758 0.82812 1.8594 0.82812 0.59766 0 1.1953-0.21094 1.6719-0.64453 1.0273-0.92969 1.1094-2.5117 0.18359-3.5352z"/>
  <path d="m67.121 64.125v2.5h52.5v-2.5c0-12.121-8.2617-22.352-19.449-25.355 5.0039-2.5039 8.4492-7.6797 8.4492-13.645 0-8.4102-6.8438-15.25-15.25-15.25-8.4102 0-15.25 6.8398-15.25 15.25 0 5.9648 3.4414 11.141 8.4453 13.645-11.188 3.0039-19.445 13.234-19.445 25.355z"/>
  <path d="m72.395 15.762-8.0039-9.2695c-0.90234-1.0469-2.4805-1.1641-3.5234-0.26172-1.0469 0.90234-1.1641 2.4844-0.26172 3.5273l2.1484 2.4883c-26.375-1.9492-49.668 17.609-52.184 44.059-0.12891 1.375 0.87891 2.5938 2.2539 2.7266 0.078125 0.007812 0.16016 0.011719 0.23828 0.011719 1.2734 0 2.3633-0.96875 2.4883-2.2617 2.2734-23.941 23.512-41.594 47.426-39.5l-3.1211 2.6953c-1.0469 0.90234-1.1602 2.4805-0.25781 3.5234 0.49609 0.57422 1.1914 0.86719 1.8906 0.86719 0.57812 0 1.1641-0.19922 1.6328-0.60938z"/>
  <path d="m36.676 94.52c5.0039-2.5039 8.4492-7.6797 8.4492-13.645 0-8.4102-6.8438-15.25-15.25-15.25-8.4102 0-15.25 6.8398-15.25 15.25 0 5.9648 3.4414 11.141 8.4453 13.645-11.188 3.0039-19.445 13.234-19.445 25.355v2.5h52.5v-2.5c-0.003906-12.121-8.2617-22.352-19.449-25.355z"/>
 </g>
</svg>
